<svg width="86" height="16" viewBox="0 0 86 16" fill="none" xmlns="http://www.w3.org/2000/svg">
<path d="M73.1891 16H68.6997C68.0765 16 67.7655 15.2368 68.2074 14.7924L74.2195 8.74661L71.0944 5.60401C70.545 5.05151 70.545 4.15211 71.0944 3.59961L74.2655 0.410798C74.8101 -0.136934 75.6897 -0.136932 76.2344 0.410799L85.5879 9.8168C86.1374 10.3693 86.1374 11.2687 85.5879 11.8212L82.4169 15.01C81.8722 15.5577 80.9927 15.5578 80.448 15.01L77.3108 11.8552L73.1891 16Z" fill="#A03B54"/>
<path fill-rule="evenodd" clip-rule="evenodd" d="M0.775758 1.48837C0.347319 1.48837 0 1.82155 0 2.23256V11.4334C0 11.8444 0.347318 12.1776 0.775757 12.1776H7.43307C7.86151 12.1776 8.20883 11.8444 8.20883 11.4334V2.23256C8.20883 1.82156 7.86151 1.48837 7.43307 1.48837H0.775758ZM2.5 3.61945H5.5V10.0465H2.5V3.61945Z" fill="#A03B54"/>
<path d="M14.3119 8.10148C14.7404 8.10148 15.0877 7.7683 15.0877 7.35729V6.63002C15.0877 6.21902 14.7404 5.88583 14.3119 5.88583H12.7059V0.778012C12.7059 0.36701 12.3586 0.0338262 11.9301 0.0338262H10.7475C10.319 0.0338262 9.97171 0.367009 9.97171 0.778011V15.222C9.97171 15.633 10.319 15.9662 10.7475 15.9662H11.9301C12.3586 15.9662 12.7059 15.633 12.7059 15.222V8.10148H14.3119Z" fill="#A03B54"/>
<path d="M29.8039 0.744186C29.8039 0.333183 29.4566 0 29.0282 0H27.8455C27.4171 0 27.0698 0.333184 27.0698 0.744186V15.2558C27.0698 15.6668 27.4171 16 27.8455 16H29.0282C29.4566 16 29.8039 15.6668 29.8039 15.2558V0.744186Z" fill="#A03B54"/>
<path d="M46.3469 8.00662C46.5538 7.56025 46.2625 7.04833 45.7711 6.92026C42.7486 6.13251 41.1785 4.08484 41.1785 2.18182V1.62368C41.1785 1.21268 40.8311 0.879492 40.4027 0.879492H39.0601C38.6316 0.879492 38.2843 1.21268 38.2843 1.62368V2.18182C38.2843 4.03827 36.7011 6.1211 33.7071 6.91735C33.2168 7.04775 32.9261 7.55943 33.1329 8.00539L33.5017 8.80061C33.6468 9.11343 33.9967 9.29373 34.344 9.21496C36.8134 8.65487 38.6646 7.34584 39.7218 5.65505C40.7816 7.36099 42.6502 8.65846 45.137 9.21613C45.4843 9.29401 45.8338 9.1137 45.9787 8.80108L46.3469 8.00662Z" fill="#A03B54"/>
<path d="M47.4174 12.7019C47.4174 12.2909 47.0701 11.9577 46.6417 11.9577H41.1073V9.21776C41.1073 8.80676 40.76 8.47357 40.3316 8.47357H39.1489C38.7205 8.47357 38.3732 8.80676 38.3732 9.21776V11.9577H32.9811C32.5526 11.9577 32.2053 12.2909 32.2053 12.7019V13.3784C32.2053 13.7894 32.5526 14.1226 32.9811 14.1226H46.6417C47.0701 14.1226 47.4174 13.7894 47.4174 13.3784V12.7019Z" fill="#A03B54"/>
<path d="M58.082 7.91029C58.3283 7.49322 58.1016 6.9678 57.6482 6.76643C55.8822 5.98216 55.0708 4.61656 54.9785 3.21353H57.3941C57.8225 3.21353 58.1698 2.88035 58.1698 2.46934V1.79281C58.1698 1.38181 57.8225 1.04863 57.3941 1.04863H49.7058C49.2774 1.04863 48.9301 1.38181 48.9301 1.79281V2.46934C48.9301 2.88035 49.2774 3.21353 49.7058 3.21353H52.1757C52.0847 4.78981 51.212 6.36523 49.3466 7.26798C48.905 7.48168 48.6965 8.00617 48.9485 8.41442L49.4367 9.2052C49.6212 9.50412 49.999 9.64486 50.3332 9.51093C51.8659 8.89662 52.9632 7.8494 53.6528 6.57164C54.3214 7.6165 55.3533 8.47056 56.7512 8.98688C57.0878 9.11119 57.4603 8.96334 57.638 8.66231L58.082 7.91029Z" fill="#A03B54"/>
<path d="M61.0557 0.0169131C61.4841 0.0169131 61.8315 0.350097 61.8315 0.7611V3.60254H63.2242C63.6527 3.60254 64 3.93572 64 4.34672V5.05708C64 5.46808 63.6527 5.80127 63.2242 5.80127H61.8315V8.89641C61.8315 9.30741 61.4841 9.64059 61.0557 9.64059H59.8731C59.4446 9.64059 59.0973 9.30741 59.0973 8.89641V0.761099C59.0973 0.350097 59.4446 0.0169131 59.8731 0.0169131H61.0557Z" fill="#A03B54"/>
<path fill-rule="evenodd" clip-rule="evenodd" d="M20.8114 1.09937C19.5123 1.09937 18.3813 1.66171 17.5802 2.66487C16.7817 3.66474 16.316 5.09452 16.316 6.83298C16.316 8.5797 16.7816 10.0177 17.5798 11.0239C18.3807 12.0333 19.5117 12.6004 20.8114 12.6004C22.1111 12.6004 23.2421 12.0333 24.043 11.0239C24.8413 10.0177 25.3069 8.5797 25.3069 6.83298C25.3069 5.09452 24.8412 3.66474 24.0426 2.66487C23.2415 1.66171 22.1105 1.09937 20.8114 1.09937ZM20.8114 3.48414C21.3339 3.48414 21.7868 3.74609 22.1189 4.2962C22.4553 4.8534 22.6616 5.70059 22.6616 6.83298C22.6616 7.97403 22.4552 8.8255 22.1187 9.38481C21.7866 9.93691 21.3338 10.1987 20.8114 10.1987C20.289 10.1987 19.8362 9.93691 19.5041 9.38481C19.1676 8.8255 18.9612 7.97403 18.9612 6.83298C18.9612 5.70059 19.1675 4.8534 19.5039 4.2962C19.836 3.74609 20.2889 3.48414 20.8114 3.48414Z" fill="#A03B54"/>
<path fill-rule="evenodd" clip-rule="evenodd" d="M56.2873 9.53911C54.5627 9.53911 53.1389 9.8248 52.1389 10.3688C51.1312 10.9171 50.5476 11.7339 50.5476 12.7696C50.5476 13.7977 51.1323 14.606 52.1398 15.1475C53.1396 15.6848 54.5631 15.9662 56.2873 15.9662C58.0027 15.9662 59.4218 15.6848 60.4194 15.1474C61.4246 14.6059 62.0092 13.7976 62.0092 12.7696C62.0092 11.734 61.4257 10.9172 60.4202 10.3689C59.4225 9.82485 58.0031 9.53911 56.2873 9.53911ZM56.2873 13.8858C55.2465 13.8858 54.4729 13.7801 53.9664 13.5787C53.715 13.4787 53.54 13.3592 53.4285 13.2271C53.3196 13.0979 53.264 12.9482 53.264 12.7696C53.264 12.5857 53.3202 12.4326 53.4294 12.3013C53.541 12.1671 53.7159 12.0463 53.967 11.9454C54.4731 11.7421 55.2463 11.6364 56.2873 11.6364C57.3192 11.6364 58.0879 11.7421 58.5917 11.9453C58.8417 12.0461 59.0162 12.1669 59.1276 12.3011C59.2366 12.4325 59.2928 12.5857 59.2928 12.7696C59.2928 12.9483 59.2371 13.098 59.1284 13.2272C59.0172 13.3593 58.8427 13.4788 58.5924 13.5788C58.0882 13.7802 57.3191 13.8858 56.2873 13.8858Z" fill="#A03B54"/>
</svg>
